<svg width="85" height="75" viewBox="0 0 85 75" fill="none" xmlns="http://www.w3.org/2000/svg">
<path d="M7.97145 2.65637C5.05124 2.65637 2.65625 5.05136 2.65625 7.97157V61.0898C2.65625 64.01 5.05124 66.405 7.97145 66.405H63.746C66.6662 66.405 69.0612 64.01 69.0612 61.0898V7.97157C69.0612 5.05136 66.6662 2.65637 63.746 2.65637H7.97145Z" fill="#FF9751"/>
<path d="M66.4051 5.31526V58.4335C66.4051 61.3537 64.0101 63.7487 61.0899 63.7487H5.31532C4.53907 63.7487 3.80582 63.5695 3.13892 63.2663C3.97673 65.1082 5.82766 66.4051 7.97162 66.4051H63.7462C66.6664 66.4051 69.0614 64.0101 69.0614 61.0899V7.97163C69.0614 5.82768 67.7645 3.97673 65.9226 3.13885C66.2259 3.80576 66.4051 4.539 66.4051 5.31526H66.4051Z" fill="#FF7F29"/>
<path d="M55.5747 51.11C48.7258 51.11 43.1555 56.6803 43.1555 63.5292C43.1555 70.3781 48.7258 75.9545 55.5747 75.9545C62.4236 75.9545 68 70.3781 68 63.5292C68 56.6803 62.4236 51.11 55.5747 51.11Z" fill="#549AD4"/>
<path d="M27.8939 2.65639C27.5416 2.65505 27.2033 2.79367 26.9533 3.04177C26.7032 3.28987 26.562 3.62712 26.5605 3.97936V25.2375C26.5614 25.448 26.6123 25.6553 26.7089 25.8422C26.8056 26.0292 26.9454 26.1905 27.1166 26.3129C27.2879 26.4352 27.4858 26.5152 27.694 26.546C27.9022 26.5769 28.1147 26.5579 28.3141 26.4905L35.8654 23.982L43.4141 26.4905C43.613 26.5564 43.8247 26.5742 44.0319 26.5426C44.2391 26.511 44.4358 26.4308 44.6061 26.3087C44.7763 26.1865 44.9153 26.0257 45.0115 25.8396C45.1078 25.6534 45.1586 25.4471 45.1599 25.2375V3.97936C45.1592 3.80473 45.124 3.63195 45.0565 3.47091C44.9889 3.30987 44.8903 3.16373 44.7662 3.04085C44.6421 2.91797 44.495 2.82076 44.3333 2.75479C44.1717 2.68882 43.9985 2.65539 43.8239 2.65639H27.8939Z" fill="#E4EFF8"/>
<path d="M9.67838 46.8743L7.02208 49.5306C5.76269 50.7861 7.64985 52.6732 8.90536 51.4139L9.29449 51.0248V59.7667C9.29449 61.5381 11.9508 61.5381 11.9508 59.7667V51.0274L12.3373 51.414C13.5926 52.7231 15.5288 50.7841 14.218 49.5307L11.5617 46.8744C11.308 46.6192 10.9617 46.478 10.6019 46.4828C10.2547 46.4875 9.92321 46.6281 9.67838 46.8743ZM20.3062 46.8743L17.6499 49.5306C16.3907 50.7861 18.2776 52.6731 19.5332 51.4139L19.9197 51.0273V59.7667C19.9197 61.538 22.576 61.538 22.576 59.7667V51.0247L22.9651 51.4138C24.2204 52.723 26.1568 50.7839 24.8458 49.5305L22.1895 46.8742C21.9358 46.619 21.5895 46.4778 21.2297 46.4827C20.8825 46.4875 20.551 46.6281 20.3062 46.8743ZM30.934 46.8743L28.2777 49.5306C27.0179 50.7861 28.9055 52.6737 30.161 51.4139L30.5449 51.0298V59.7666C30.5449 61.5379 33.2012 61.5379 33.2012 59.7666V51.0221L33.5929 51.4136C34.8483 52.7134 36.7725 50.7785 35.4658 49.5303L32.8069 46.874C32.5557 46.6215 32.2136 46.4804 31.8575 46.4826C31.5103 46.4875 31.1788 46.6281 30.934 46.8743Z" fill="#FF7F29"/>
<path d="M12.3945 48.3053L10.3239 50.3759C9.34237 51.3545 10.8133 52.8254 11.7919 51.8439L12.0952 51.5406V58.3548C12.0952 59.7355 14.1658 59.7355 14.1658 58.3548V51.5427L14.4671 51.8439C15.4455 52.8644 16.9548 51.353 15.933 50.376L13.8625 48.3054C13.6647 48.1066 13.3948 47.9964 13.1143 48.0002C12.8437 48.0039 12.5853 48.1134 12.3945 48.3053ZM20.6787 48.3053L18.6081 50.3759C17.6254 51.3545 19.0975 52.8267 20.0761 51.8439L20.3774 51.5426V58.3547C20.3774 59.7355 22.4479 59.7355 22.4479 58.3547V51.5405L22.7513 51.8438C23.7297 52.8642 25.239 51.3529 24.2172 50.3758L22.1467 48.3053C21.9489 48.1064 21.679 47.9963 21.3985 48.0001C21.1279 48.0039 20.8695 48.1134 20.6787 48.3053ZM28.9629 48.3053L26.8923 50.3759C25.9106 51.3545 27.3817 52.8256 28.3603 51.8439L28.6596 51.5445V58.3547C28.6596 59.7354 30.7301 59.7354 30.7301 58.3547V51.5385L31.0354 51.8437C32.014 52.857 33.514 51.3486 32.4953 50.3757L30.4227 48.3051C30.227 48.1083 29.9603 47.9983 29.6827 48C29.4121 48.0039 29.1537 48.1134 28.9629 48.3053ZM60.0219 59.7L54.5424 65.1795L52.1656 62.8027C51.1878 61.7659 49.664 63.2976 50.7059 64.2701L53.8087 67.3728C54.2134 67.7792 54.8713 67.7792 55.276 67.3728L61.4815 61.1673C62.1635 60.5105 61.679 59.3586 60.7326 59.3866C60.464 59.3948 60.2091 59.5072 60.0219 59.7Z" fill="#E4EFF8"/>
<path d="M55.5747 51.11C48.7258 51.11 43.1555 56.6803 43.1555 63.5292C43.1555 67.4821 45.0172 71.0037 47.9032 73.2814C46.232 71.1646 45.2261 68.4993 45.2261 65.5998C45.2261 58.7508 50.7964 53.1805 57.6453 53.1805C60.5449 53.1805 63.2101 54.1865 65.3269 55.8577C63.0492 52.9717 59.5277 51.11 55.5747 51.11Z" fill="#3588CB"/>
<path d="M41.1675 2.65636C41.902 2.6521 42.5005 3.24478 42.5034 3.97933V25.2375C42.5014 25.5472 42.3913 25.8462 42.1921 26.0832L43.4139 26.4903C44.2703 26.7739 45.1543 26.1394 45.1597 25.2374V3.97918C45.1568 3.24463 44.5583 2.65195 43.8238 2.65621L41.1675 2.65636Z" fill="#C4DCF0"/>
<path d="M35.8654 21.3257L28.3141 23.8341C28.1147 23.9015 27.9022 23.9206 27.694 23.8897C27.4858 23.8588 27.2879 23.7789 27.1166 23.6565C26.9454 23.5342 26.8056 23.3728 26.7089 23.1859C26.6123 22.9989 26.5614 22.7917 26.5605 22.5812V25.2375C26.5614 25.448 26.6123 25.6552 26.7089 25.8422C26.8056 26.0292 26.9454 26.1905 27.1166 26.3128C27.2879 26.4352 27.4858 26.5151 27.694 26.546C27.9022 26.5769 28.1147 26.5578 28.3141 26.4904L35.8654 23.982L43.4141 26.4904C43.613 26.5563 43.8247 26.5742 44.0319 26.5426C44.2391 26.511 44.4358 26.4308 44.6061 26.3086C44.7763 26.1864 44.9153 26.0257 45.0115 25.8395C45.1078 25.6534 45.1586 25.4471 45.1599 25.2375V22.5812C45.1586 22.7907 45.1078 22.997 45.0115 23.1832C44.9153 23.3694 44.7763 23.5301 44.6061 23.6523C44.4358 23.7745 44.2391 23.8547 44.0319 23.8863C43.8247 23.9179 43.613 23.9 43.4141 23.8341L35.8654 21.3257Z" fill="#C4DCF0"/>
</svg>
